<svg width="24" height="24" viewBox="0 0 24 24" fill="none" xmlns="http://www.w3.org/2000/svg">
<path d="M0 4.00012C0 2.93922 0.42143 1.92178 1.17158 1.17161C1.92173 0.42144 2.93915 0 4.00002 0H15.2001C16.261 0 17.2784 0.42144 18.0285 1.17161C18.7787 1.92178 19.2001 2.93922 19.2001 4.00012V6.44819C18.6687 6.38662 18.132 6.38447 17.6001 6.44179V6.40019H1.60001V15.2005C1.60001 15.837 1.85287 16.4475 2.30296 16.8976C2.75305 17.3477 3.3635 17.6005 4.00002 17.6005H8.72645L7.57444 18.7526C7.43449 18.8921 7.30506 19.0419 7.18724 19.2006H4.00002C2.93915 19.2006 1.92173 18.7791 1.17158 18.029C0.42143 17.2788 0 16.2614 0 15.2005V4.00012ZM12.6897 9.15867L11.7665 8.23385C11.6921 8.15946 11.6038 8.10046 11.5066 8.0602C11.4094 8.01995 11.3053 7.99923 11.2001 7.99923C11.0949 7.99923 10.9907 8.01995 10.8935 8.0602C10.7963 8.10046 10.708 8.15946 10.6337 8.23385C10.5593 8.30823 10.5003 8.39653 10.46 8.49372C10.4198 8.59091 10.399 8.69507 10.399 8.80026C10.399 8.90546 10.4198 9.00962 10.46 9.10681C10.5003 9.20399 10.5593 9.2923 10.6337 9.36668L11.8257 10.5571C12.0561 10.0654 12.3441 9.59922 12.6897 9.15867ZM1.60001 4.80014H17.6001V4.00012C17.6001 3.36358 17.3472 2.75311 16.8972 2.30301C16.4471 1.85291 15.8366 1.60005 15.2001 1.60005H4.00002C3.3635 1.60005 2.75305 1.85291 2.30296 2.30301C1.85287 2.75311 1.60001 3.36358 1.60001 4.00012V4.80014ZM8.56645 9.36668C8.64083 9.2923 8.69983 9.20399 8.74009 9.10681C8.78034 9.00962 8.80106 8.90546 8.80106 8.80026C8.80106 8.69507 8.78034 8.59091 8.74009 8.49372C8.69983 8.39653 8.64083 8.30823 8.56645 8.23385C8.49207 8.15946 8.40377 8.10046 8.30658 8.0602C8.2094 8.01995 8.10524 7.99923 8.00005 7.99923C7.89486 7.99923 7.79069 8.01995 7.69351 8.0602C7.59633 8.10046 7.50802 8.15946 7.43364 8.23385L4.23362 11.4339C4.15912 11.5083 4.10001 11.5965 4.05968 11.6937C4.01935 11.7909 3.99859 11.8951 3.99859 12.0004C3.99859 12.1056 4.01935 12.2098 4.05968 12.307C4.10001 12.4042 4.15912 12.4925 4.23362 12.5668L7.43364 15.7669C7.58386 15.9171 7.7876 16.0015 8.00005 16.0015C8.21249 16.0015 8.41623 15.9171 8.56645 15.7669C8.71667 15.6166 8.80106 15.4129 8.80106 15.2005C8.80106 14.988 8.71667 14.7843 8.56645 14.634L5.93123 12.0004L8.56645 9.36668ZM19.0273 8.03864C19.6129 8.10584 19.7809 8.80666 19.3633 9.22588L17.8033 10.7859C17.5793 11.0099 17.4016 11.2758 17.2804 11.5685C17.1592 11.8611 17.0968 12.1748 17.0968 12.4916C17.0968 12.8083 17.1592 13.122 17.2804 13.4147C17.4016 13.7073 17.5793 13.9732 17.8033 14.1972C18.0273 14.4212 18.2932 14.5989 18.5858 14.7201C18.8785 14.8413 19.1922 14.9037 19.5089 14.9037C19.8257 14.9037 20.1393 14.8413 20.432 14.7201C20.7246 14.5989 20.9905 14.4212 21.2145 14.1972L22.7745 12.6372C23.1921 12.2196 23.8945 12.3876 23.9617 12.9732C24.0732 13.9241 23.9402 14.8877 23.5755 15.7729C23.2107 16.6581 22.6262 17.4357 21.8772 18.032C21.1283 18.6284 20.2395 19.0238 19.2951 19.181C18.3507 19.3382 17.3818 19.2518 16.4801 18.9302L12.1185 23.2935C11.8945 23.5175 11.6286 23.6952 11.3359 23.8164C11.0433 23.9376 10.7296 24 10.4129 24C10.0961 24 9.78244 23.9376 9.48979 23.8164C9.19714 23.6952 8.93123 23.5175 8.70725 23.2935C8.48327 23.0695 8.30559 22.8036 8.18437 22.5109C8.06315 22.2183 8.00076 21.9046 8.00076 21.5878C8.00076 21.2711 8.06315 20.9574 8.18437 20.6648C8.30559 20.3721 8.48327 20.1062 8.70725 19.8822L13.0689 15.5205C12.7471 14.6186 12.6608 13.6495 12.818 12.7049C12.9753 11.7603 13.3708 10.8715 13.9674 10.1224C14.5639 9.37337 15.3417 8.78888 16.2271 8.42425C17.1125 8.05962 18.0763 7.9269 19.0273 8.03864Z" fill="white"/>
</svg>
