<svg width="26" height="26" viewBox="0 0 26 26" fill="none" xmlns="http://www.w3.org/2000/svg">
<path d="M1.52982 15.2042H7.15877M1.52982 8.02291H21.7891M9.47689 17.387V23.9667M16.3347 11.6588C16.3347 5.63388 14.2413 0.75 11.6592 0.75C9.07708 0.75 6.98423 5.63388 6.98423 11.6588C6.98423 12.8997 7.07313 14.0926 7.23676 15.2042" stroke="white" stroke-width="1.5" stroke-linecap="round" stroke-linejoin="round"/>
<path d="M22.446 13.2951C22.5267 12.7606 22.5673 12.2152 22.5676 11.6588C22.5676 5.63388 17.6838 0.75 11.6588 0.75C5.63388 0.75 0.75 5.63388 0.75 11.6588C0.75 15.9182 3.19085 19.607 6.74985 21.4031" stroke="white" stroke-width="1.5" stroke-linecap="round" stroke-linejoin="round"/>
<path d="M10.0247 18.1815C9.29165 17.8509 9.29165 16.9242 10.0247 16.5937C10.8532 16.2222 11.6886 15.8663 12.5305 15.5262C14.2295 14.8363 15.4557 14.3928 16.21 14.1354C16.7949 13.9348 17.43 13.9348 18.0149 14.1354C18.7687 14.3928 19.9948 14.8363 21.6939 15.5262C22.5358 15.8666 23.3714 16.2224 24.2002 16.5937C24.9333 16.9242 24.9333 17.8509 24.2002 18.1815C23.3715 18.5529 22.5359 18.9088 21.6939 19.2489C19.9954 19.9389 18.7687 20.3823 18.0149 20.6398C17.4298 20.8405 16.7945 20.8405 16.2095 20.6398C15.4562 20.3823 14.2295 19.9389 12.5305 19.2489C11.6884 18.9088 10.8529 18.5529 10.0242 18.1815" stroke="white" stroke-width="1.5" stroke-linecap="round" stroke-linejoin="round"/>
<path d="M12.477 19.2263V20.91C12.477 21.7762 12.5124 22.3882 12.555 22.8103C12.6106 23.3678 12.9259 23.8429 13.437 24.072C14.1286 24.3829 15.3253 24.7505 17.1132 24.7505C18.9012 24.7505 20.0979 24.3823 20.7895 24.072C21.3 23.8429 21.6159 23.3678 21.6715 22.8103C21.714 22.3882 21.7495 21.7762 21.7495 20.91V19.2263" stroke="white" stroke-width="1.5" stroke-linecap="round" stroke-linejoin="round"/>
</svg>
