<svg width="100" height="19" viewBox="0 0 100 19" fill="none" xmlns="http://www.w3.org/2000/svg">
<path d="M91.0158 18.0755C86.2289 18.1047 82.1069 14.4204 82.0619 9.35333C82.0169 4.29868 85.9904 0.303785 91.008 0.29591C95.9614 0.288035 99.9765 4.18506 100 9.19246C100.025 14.2842 95.8792 18.0935 91.0158 18.0755Z" fill="white"/>
<path d="M35.7347 9.25093C35.6604 5.24029 38.3751 1.64591 42.3092 0.68403C45.9194 -0.197974 49.0964 0.66715 51.6434 3.43466C52.8326 4.72729 53.4918 6.29556 53.7382 8.05394C54.3727 12.5663 51.298 16.8773 46.7373 17.8212C43.936 18.4006 41.335 17.9292 39.0523 16.1663C37.3007 14.813 36.2151 13.0141 35.8404 10.8125C35.8056 10.61 35.7504 10.4097 35.7403 10.2061C35.7234 9.88881 35.7358 9.56931 35.7358 9.25093H35.7347Z" fill="white"/>
<path d="M20.8306 8.65588C20.8306 6.20968 20.8306 3.76237 20.8306 1.31618C20.8306 1.18392 20.8395 1.05167 20.8294 0.921669C20.8092 0.67185 20.9271 0.593868 21.1617 0.598389C21.6286 0.608563 22.0955 0.594998 22.5624 0.598389C24.4121 0.608563 26.2663 0.544127 28.1104 0.651515C30.4169 0.786033 32.2957 1.77059 33.3171 3.96584C34.6516 6.83593 33.6022 11.0309 29.4516 12.0493C28.1878 12.3591 26.9072 12.3794 25.6198 12.3772C24.7656 12.3749 24.8734 12.2777 24.87 13.1221C24.8655 14.6086 24.8711 16.0962 24.8678 17.5827C24.8678 18.0145 24.8588 18.0213 24.4345 18.0235C23.668 18.0281 22.9025 18.0145 22.1359 18.0258C21.8441 18.0303 21.6275 17.9399 21.4883 17.6776C21.4703 17.6448 21.4524 17.611 21.4299 17.5816C20.9507 16.9655 20.7969 16.2816 20.8137 15.4881C20.862 13.2114 20.8306 10.9336 20.8306 8.65701V8.65588Z" fill="white"/>
<path d="M0 18.026C3.3424 12.0196 6.67802 6.0334 10.0362 0C13.4112 6.01203 16.6321 12.0826 19.9689 18.026C19.4626 18.026 2.58752 18.026 0 18.026Z" fill="white"/>
<path d="M69.527 9.41758C69.527 6.77832 69.527 4.13794 69.527 1.49868C69.527 1.36818 69.5349 1.23655 69.527 1.10605C69.5124 0.884427 69.6193 0.812416 69.8285 0.813541C70.9141 0.819166 72.0009 0.828166 73.0865 0.813541C73.4555 0.809041 73.397 1.04079 73.397 1.26242C73.397 3.2098 73.397 5.15608 73.397 7.10346C73.397 9.31297 73.3937 11.5213 73.3937 13.7309C73.3937 14.218 73.3959 14.2247 73.8853 14.2247C76.0194 14.227 78.1536 14.227 80.2877 14.2247C80.8063 14.2247 80.7771 14.2022 80.776 14.7119C80.776 15.685 80.7782 16.6592 80.776 17.6324C80.7748 18.0565 80.7692 18.0644 80.3428 18.0644C77.8903 18.0666 75.4378 18.0655 72.9853 18.0655C72.0302 18.0655 71.0762 18.0633 70.121 18.0655C69.4269 18.0666 69.5315 18.0723 69.5304 17.4479C69.5281 14.7704 69.5304 12.0928 69.5304 9.41645L69.527 9.41758Z" fill="white"/>
<path d="M55.6885 9.37615C55.6885 6.77289 55.6885 4.16961 55.6885 1.56635C55.6885 1.45385 55.6874 1.34135 55.6885 1.22884C55.6964 0.824968 55.6975 0.820477 56.0822 0.815977C56.5874 0.810352 57.0936 0.815977 57.5988 0.815977C58.0859 0.815977 58.573 0.820478 59.059 0.817103C59.518 0.814853 59.5416 0.761973 59.536 1.31885C59.5304 1.8431 59.536 2.36735 59.536 2.89161C59.536 6.468 59.536 10.0455 59.536 13.6219C59.536 13.6782 59.5349 13.7344 59.536 13.7907C59.545 14.2103 59.545 14.2193 59.9793 14.2193C62.1516 14.2227 64.324 14.2215 66.4964 14.2215C66.6281 14.2215 66.7586 14.226 66.8902 14.2215C67.0657 14.2148 67.1703 14.2643 67.1692 14.4691C67.1647 15.5738 67.1647 16.6786 67.1703 17.7833C67.1714 18.0128 67.0601 18.0747 66.8587 18.0623C66.7462 18.0556 66.6337 18.0623 66.5212 18.0623C63.1124 18.0623 59.7048 18.0623 56.296 18.0623C56.2769 18.0623 56.2589 18.0623 56.2397 18.0623C55.6019 18.0702 55.6919 18.0567 55.6919 17.5212C55.6919 14.8054 55.6919 12.0908 55.6919 9.37503H55.6907L55.6885 9.37615Z" fill="white"/>
<path d="M91.0986 4.63623C93.8933 4.66154 95.6708 6.98348 95.6006 9.35693C95.5357 11.5225 93.7801 13.6022 91.3213 13.7173L90.9521 13.7212C88.501 13.7423 86.4051 11.7608 86.4111 9.27295C86.4174 6.71869 88.3816 4.61082 91.0986 4.63623Z" fill="#015C97" stroke="#015C97"/>
<path d="M44.7549 4.52393C47.532 4.53229 49.4706 6.83954 49.3926 9.24854L49.3857 9.46338L49.3926 9.47021C49.3347 11.7367 47.3844 13.8367 44.7148 13.8159C42.1459 13.7965 40.065 11.8283 40.083 9.18701C40.1014 6.46364 42.1879 4.5168 44.7549 4.52393Z" fill="#0097D9" stroke="#0097D9"/>
<path d="M25.333 4.61328C25.7627 4.62559 26.1944 4.61602 26.5928 4.61426C26.9451 4.6127 27.2831 4.61844 27.6143 4.64941L27.9434 4.68945C28.6445 4.79664 29.3804 5.25149 29.4502 6.23438C29.5122 7.10666 29.0135 7.76291 28.2051 7.99414C27.9827 8.05765 27.7768 8.09382 27.5703 8.09473C26.8258 8.09792 26.0785 8.10792 25.3311 8.13184C25.3444 7.52977 25.3359 6.92082 25.3359 6.34082V6.33887C25.3359 5.77193 25.3394 5.19119 25.333 4.61328Z" fill="#0097D9" stroke="#0097D9"/>
<path d="M10.2907 6.82764C11.9478 9.76953 13.5543 12.6203 15.1946 15.5329H5.32715C6.98091 12.6327 8.60767 9.7774 10.2907 6.82764Z" fill="#015B97" stroke="#015B97"/>
<path d="M12.0488 13.7778H8.48828C9.08173 12.7178 9.66524 11.6715 10.2646 10.6011C10.8625 11.6661 11.4513 12.714 12.0488 13.7778Z" fill="#0097D9" stroke="#0097D9"/>
</svg>
