<svg width="24" height="17" viewBox="0 0 24 17" fill="none" xmlns="http://www.w3.org/2000/svg">
<path d="M18.8571 0H5.14286C4.6882 0 4.25216 0.179107 3.93067 0.497918C3.60918 0.81673 3.42857 1.24913 3.42857 1.7V15.3C3.42857 15.7509 3.60918 16.1833 3.93067 16.5021C4.25216 16.8209 4.6882 17 5.14286 17H18.8571C19.3118 17 19.7478 16.8209 20.0693 16.5021C20.3908 16.1833 20.5714 15.7509 20.5714 15.3V1.7C20.5714 1.24913 20.3908 0.81673 20.0693 0.497918C19.7478 0.179107 19.3118 0 18.8571 0ZM18.8571 15.3H5.14286V1.7H18.8571V15.3ZM24 0.85V16.15C24 16.3754 23.9097 16.5916 23.7489 16.751C23.5882 16.9104 23.3702 17 23.1429 17C22.9155 17 22.6975 16.9104 22.5368 16.751C22.376 16.5916 22.2857 16.3754 22.2857 16.15V0.85C22.2857 0.624566 22.376 0.408365 22.5368 0.248959C22.6975 0.0895535 22.9155 0 23.1429 0C23.3702 0 23.5882 0.0895535 23.7489 0.248959C23.9097 0.408365 24 0.624566 24 0.85ZM1.71429 0.85V16.15C1.71429 16.3754 1.62398 16.5916 1.46323 16.751C1.30249 16.9104 1.08447 17 0.857143 17C0.629814 17 0.411797 16.9104 0.251051 16.751C0.0903058 16.5916 0 16.3754 0 16.15V0.85C0 0.624566 0.0903058 0.408365 0.251051 0.248959C0.411797 0.0895535 0.629814 0 0.857143 0C1.08447 0 1.30249 0.0895535 1.46323 0.248959C1.62398 0.408365 1.71429 0.624566 1.71429 0.85Z" fill="white"/>
</svg>
