<svg width="54" height="54" viewBox="0 0 54 54" fill="none" xmlns="http://www.w3.org/2000/svg">
<path d="M12.5266 26.4689C26.4318 0.553127 43.7449 0.253125 50.666 3.34259C53.7554 10.2636 53.4554 27.5768 27.5397 41.482C27.2713 39.9373 25.7765 35.8899 21.9476 32.061C18.1186 28.232 14.0713 26.7373 12.5266 26.4689Z" stroke="#3478F6" stroke-width="4" stroke-linecap="round" stroke-linejoin="round"/>
<path d="M30.9473 40.956C36.3236 43.4112 36.8947 47.8165 37.642 52.0086C37.642 52.0086 48.8999 44.2402 41.6999 33.5876M13.0526 23.0613C10.5974 17.6849 6.1921 17.1113 2 16.3665C2 16.3665 9.76841 5.10865 20.421 12.3086M10.4447 33.5876C8.78157 35.2507 5.95526 40.0718 7.94999 46.0586C13.9368 48.0533 18.7579 45.227 20.421 43.5639" stroke="#3478F6" stroke-width="4" stroke-linecap="round" stroke-linejoin="round"/>
<path d="M41.7218 17.1481C41.7218 16.5098 41.5961 15.8778 41.3518 15.2881C41.1076 14.6984 40.7496 14.1626 40.2982 13.7112C39.8469 13.2599 39.3111 12.9018 38.7214 12.6576C38.1316 12.4133 37.4996 12.2876 36.8613 12.2876C36.223 12.2876 35.591 12.4133 35.0013 12.6576C34.4116 12.9018 33.8757 13.2599 33.4244 13.7112C32.9731 14.1626 32.615 14.6984 32.3708 15.2881C32.1265 15.8778 32.0008 16.5098 32.0008 17.1481C32.0008 18.4372 32.5129 19.6735 33.4244 20.585C34.3359 21.4965 35.5722 22.0086 36.8613 22.0086C38.1504 22.0086 39.3867 21.4965 40.2982 20.585C41.2097 19.6735 41.7218 18.4372 41.7218 17.1481Z" stroke="#3478F6" stroke-width="4"/>
</svg>
