<svg width="24" height="24" viewBox="0 0 24 24" fill="none" xmlns="http://www.w3.org/2000/svg">
<path d="M16.629 13.891L17.085 13.438L16.026 12.374L15.572 12.827L16.629 13.891ZM18.614 13.248L20.525 14.287L21.24 12.969L19.33 11.931L18.614 13.248ZM20.892 16.351L19.472 17.764L20.529 18.827L21.949 17.415L20.892 16.351ZM18.606 18.218C17.156 18.354 13.406 18.233 9.344 14.195L8.286 15.258C12.718 19.665 16.937 19.881 18.746 19.712L18.606 18.218ZM9.344 14.195C5.473 10.345 4.831 7.10796 4.751 5.70296L3.253 5.78796C3.353 7.55596 4.148 11.144 8.286 15.258L9.344 14.195ZM10.719 8.01496L11.006 7.72896L9.95 6.66596L9.663 6.95096L10.719 8.01496ZM11.234 4.09396L9.974 2.40996L8.773 3.30996L10.033 4.99296L11.234 4.09396ZM5.733 2.04296L4.163 3.60296L5.221 4.66696L6.79 3.10696L5.733 2.04296ZM10.191 7.48296C9.661 6.95096 9.661 6.95096 9.661 6.95296H9.659L9.656 6.95696C9.60848 7.00487 9.56593 7.05748 9.529 7.11396C9.475 7.19396 9.416 7.29896 9.366 7.43196C9.24427 7.77529 9.21395 8.14437 9.278 8.50296C9.412 9.36796 10.008 10.511 11.534 12.029L12.592 10.965C11.163 9.54496 10.823 8.68096 10.76 8.27296C10.73 8.07896 10.761 7.98296 10.77 7.96096C10.776 7.94763 10.776 7.94563 10.77 7.95496C10.7611 7.96876 10.751 7.9818 10.74 7.99396L10.73 8.00396L10.72 8.01296L10.191 7.48296ZM11.534 12.029C13.061 13.547 14.21 14.139 15.076 14.271C15.519 14.339 15.876 14.285 16.147 14.184C16.2988 14.1284 16.4406 14.0487 16.567 13.948L16.617 13.903L16.624 13.897L16.627 13.894L16.628 13.892C16.628 13.892 16.629 13.891 16.1 13.359C15.57 12.827 15.573 12.826 15.573 12.826L15.575 12.824L15.577 12.822L15.583 12.817L15.593 12.807L15.631 12.777C15.6403 12.771 15.638 12.7716 15.624 12.779C15.599 12.788 15.501 12.819 15.304 12.789C14.89 12.725 14.02 12.385 12.592 10.965L11.534 12.029ZM9.974 2.40896C8.954 1.04896 6.95 0.83296 5.733 2.04296L6.79 3.10696C7.322 2.57796 8.266 2.63296 8.773 3.30996L9.974 2.40896ZM4.752 5.70396C4.732 5.35796 4.891 4.99596 5.221 4.66796L4.162 3.60396C3.625 4.13796 3.202 4.89396 3.253 5.78796L4.752 5.70396ZM19.472 17.764C19.198 18.038 18.902 18.192 18.607 18.219L18.746 19.712C19.481 19.643 20.082 19.273 20.53 18.828L19.472 17.764ZM11.006 7.72896C11.991 6.74996 12.064 5.20296 11.235 4.09496L10.034 4.99396C10.437 5.53296 10.377 6.23996 9.949 6.66696L11.006 7.72896ZM20.526 14.288C21.343 14.732 21.47 15.778 20.893 16.352L21.951 17.415C23.291 16.082 22.878 13.859 21.241 12.97L20.526 14.288ZM17.085 13.439C17.469 13.057 18.087 12.963 18.615 13.249L19.331 11.932C18.247 11.342 16.903 11.505 16.027 12.375L17.085 13.439Z" fill="#3478F6"/>
</svg>
