<svg width="24" height="24" viewBox="0 0 24 24" fill="none" xmlns="http://www.w3.org/2000/svg">
<path d="M12 3.00002C10.1435 3.00002 8.36301 3.73752 7.05025 5.05028C5.7375 6.36303 5 8.14351 5 10C5 12.862 6.782 15.623 8.738 17.762C9.73814 18.8517 10.8294 19.854 12 20.758C12.1747 20.624 12.3797 20.4607 12.615 20.268C13.5548 19.4963 14.4393 18.6596 15.262 17.764C17.218 15.623 19 12.863 19 10C19 8.14351 18.2625 6.36303 16.9497 5.05028C15.637 3.73752 13.8565 3.00002 12 3.00002ZM12 23.214L11.433 22.824L11.43 22.822L11.424 22.817L11.404 22.803L11.329 22.75L11.059 22.553C9.69086 21.5248 8.41988 20.3733 7.262 19.113C5.218 16.875 3 13.636 3 9.99902C3 7.61207 3.94821 5.32289 5.63604 3.63506C7.32387 1.94724 9.61305 0.999023 12 0.999023C14.3869 0.999023 16.6761 1.94724 18.364 3.63506C20.0518 5.32289 21 7.61207 21 9.99902C21 13.636 18.782 16.876 16.738 19.111C15.5804 20.3713 14.3098 21.5228 12.942 22.551C12.8281 22.6361 12.713 22.7198 12.597 22.802L12.576 22.816L12.57 22.821L12.568 22.822L12 23.214ZM12 8.00002C11.4696 8.00002 10.9609 8.21074 10.5858 8.58581C10.2107 8.96088 10 9.46959 10 10C10 10.5305 10.2107 11.0392 10.5858 11.4142C10.9609 11.7893 11.4696 12 12 12C12.5304 12 13.0391 11.7893 13.4142 11.4142C13.7893 11.0392 14 10.5305 14 10C14 9.46959 13.7893 8.96088 13.4142 8.58581C13.0391 8.21074 12.5304 8.00002 12 8.00002ZM8 10C8 8.93916 8.42143 7.92174 9.17157 7.1716C9.92172 6.42145 10.9391 6.00002 12 6.00002C13.0609 6.00002 14.0783 6.42145 14.8284 7.1716C15.5786 7.92174 16 8.93916 16 10C16 11.0609 15.5786 12.0783 14.8284 12.8285C14.0783 13.5786 13.0609 14 12 14C10.9391 14 9.92172 13.5786 9.17157 12.8285C8.42143 12.0783 8 11.0609 8 10Z" fill="#3478F6"/>
</svg>
